<mxfile host="app.diagrams.net" modified="2020-12-08T16:27:25.742Z" agent="5.0 (Windows)" etag="TAlIPvLbFuPPqv6UEgjg" version="13.11.0" type="github">
  <diagram id="kgpKYQtTHZ0yAKxKKP6v" name="Page-1">
    <mxGraphModel dx="813" dy="436" grid="1" gridSize="10" guides="1" tooltips="1" connect="1" arrows="1" fold="1" page="1" pageScale="1" pageWidth="850" pageHeight="1100" math="0" shadow="0">
      <root>
        <mxCell id="0" />
        <mxCell id="1" parent="0" />
        <mxCell id="QkA5G9svy1yMEFhaN2m3-35" value="Login" style="shape=umlFrame;whiteSpace=wrap;html=1;labelBackgroundColor=none;fillColor=#FFFFFF;" vertex="1" parent="1">
          <mxGeometry x="60" y="50" width="700" height="380" as="geometry" />
        </mxCell>
        <mxCell id="QkA5G9svy1yMEFhaN2m3-36" value="alt" style="shape=umlFrame;whiteSpace=wrap;html=1;labelBackgroundColor=none;fillColor=#FFFFFF;" vertex="1" parent="1">
          <mxGeometry x="70" y="230" width="660" height="180" as="geometry" />
        </mxCell>
        <mxCell id="3nuBFxr9cyL0pnOWT2aG-5" value="login: UI" style="shape=umlLifeline;perimeter=lifelinePerimeter;container=1;collapsible=0;recursiveResize=0;rounded=0;shadow=0;strokeWidth=1;" parent="1" vertex="1">
          <mxGeometry x="275" y="70" width="100" height="330" as="geometry" />
        </mxCell>
        <mxCell id="QkA5G9svy1yMEFhaN2m3-14" value="" style="html=1;points=[];perimeter=orthogonalPerimeter;" vertex="1" parent="3nuBFxr9cyL0pnOWT2aG-5">
          <mxGeometry x="45" y="90" width="10" height="220" as="geometry" />
        </mxCell>
        <mxCell id="QkA5G9svy1yMEFhaN2m3-3" value="Sistema" style="shape=umlLifeline;perimeter=lifelinePerimeter;container=1;collapsible=0;recursiveResize=0;rounded=0;shadow=0;strokeWidth=1;movable=0;resizable=0;rotatable=0;deletable=0;editable=0;connectable=0;" vertex="1" parent="1">
          <mxGeometry x="450" y="70" width="100" height="300" as="geometry" />
        </mxCell>
        <mxCell id="QkA5G9svy1yMEFhaN2m3-19" value="" style="html=1;points=[];perimeter=orthogonalPerimeter;" vertex="1" parent="QkA5G9svy1yMEFhaN2m3-3">
          <mxGeometry x="45" y="110" width="10" height="180" as="geometry" />
        </mxCell>
        <mxCell id="QkA5G9svy1yMEFhaN2m3-32" value="" style="html=1;points=[];perimeter=orthogonalPerimeter;labelBackgroundColor=none;fillColor=#000000;" vertex="1" parent="QkA5G9svy1yMEFhaN2m3-3">
          <mxGeometry x="49.62" y="170" width="10" height="20" as="geometry" />
        </mxCell>
        <mxCell id="QkA5G9svy1yMEFhaN2m3-33" value="autheniticate()" style="edgeStyle=orthogonalEdgeStyle;html=1;align=left;spacingLeft=2;endArrow=block;rounded=0;entryX=1.092;entryY=0.829;entryDx=0;entryDy=0;entryPerimeter=0;exitX=1.035;exitY=0.342;exitDx=0;exitDy=0;exitPerimeter=0;" edge="1" target="QkA5G9svy1yMEFhaN2m3-32" parent="QkA5G9svy1yMEFhaN2m3-3" source="QkA5G9svy1yMEFhaN2m3-19">
          <mxGeometry relative="1" as="geometry">
            <mxPoint x="75" y="170" as="sourcePoint" />
            <Array as="points">
              <mxPoint x="75" y="165" />
              <mxPoint x="75" y="187" />
            </Array>
          </mxGeometry>
        </mxCell>
        <mxCell id="QkA5G9svy1yMEFhaN2m3-9" value="" style="shape=umlLifeline;participant=umlActor;perimeter=lifelinePerimeter;whiteSpace=wrap;html=1;container=1;collapsible=0;recursiveResize=0;verticalAlign=top;spacingTop=36;outlineConnect=0;" vertex="1" parent="1">
          <mxGeometry x="150" y="70" width="20" height="330" as="geometry" />
        </mxCell>
        <mxCell id="QkA5G9svy1yMEFhaN2m3-13" value="" style="html=1;points=[];perimeter=orthogonalPerimeter;" vertex="1" parent="QkA5G9svy1yMEFhaN2m3-9">
          <mxGeometry x="5" y="70" width="10" height="250" as="geometry" />
        </mxCell>
        <mxCell id="QkA5G9svy1yMEFhaN2m3-15" value="&lt;div align=&quot;center&quot;&gt;&lt;font style=&quot;font-size: 11px&quot; face=&quot;Helvetica&quot;&gt;Input username e password&lt;/font&gt;&lt;/div&gt;" style="html=1;verticalAlign=bottom;endArrow=block;entryX=0;entryY=0;align=center;" edge="1" target="QkA5G9svy1yMEFhaN2m3-14" parent="1" source="QkA5G9svy1yMEFhaN2m3-13">
          <mxGeometry relative="1" as="geometry">
            <mxPoint x="190" y="170" as="sourcePoint" />
          </mxGeometry>
        </mxCell>
        <mxCell id="QkA5G9svy1yMEFhaN2m3-16" value="Visualizza Homepage" style="html=1;verticalAlign=bottom;endArrow=open;dashed=1;endSize=8;exitX=-0.157;exitY=0.575;exitDx=0;exitDy=0;exitPerimeter=0;" edge="1" source="QkA5G9svy1yMEFhaN2m3-14" parent="1" target="QkA5G9svy1yMEFhaN2m3-13">
          <mxGeometry relative="1" as="geometry">
            <mxPoint x="166" y="246" as="targetPoint" />
          </mxGeometry>
        </mxCell>
        <mxCell id="QkA5G9svy1yMEFhaN2m3-18" value="Messaggio di errore" style="html=1;verticalAlign=bottom;endArrow=open;dashed=1;endSize=8;exitX=0.071;exitY=0.941;exitDx=0;exitDy=0;exitPerimeter=0;" edge="1" parent="1" source="QkA5G9svy1yMEFhaN2m3-14" target="QkA5G9svy1yMEFhaN2m3-13">
          <mxGeometry relative="1" as="geometry">
            <mxPoint x="175" y="267.75" as="targetPoint" />
            <mxPoint x="328.43000000000006" y="267.75" as="sourcePoint" />
          </mxGeometry>
        </mxCell>
        <mxCell id="QkA5G9svy1yMEFhaN2m3-20" value="AuthenticateTheUser()" style="html=1;verticalAlign=bottom;endArrow=block;entryX=0;entryY=0;" edge="1" target="QkA5G9svy1yMEFhaN2m3-19" parent="1" source="QkA5G9svy1yMEFhaN2m3-14">
          <mxGeometry relative="1" as="geometry">
            <mxPoint x="425" y="190" as="sourcePoint" />
          </mxGeometry>
        </mxCell>
        <mxCell id="QkA5G9svy1yMEFhaN2m3-21" value="Pagina Http" style="html=1;verticalAlign=bottom;endArrow=open;dashed=1;endSize=8;exitX=-0.295;exitY=0.536;exitDx=0;exitDy=0;exitPerimeter=0;" edge="1" source="QkA5G9svy1yMEFhaN2m3-19" parent="1" target="QkA5G9svy1yMEFhaN2m3-14">
          <mxGeometry x="-0.0004" y="-4" relative="1" as="geometry">
            <mxPoint x="350" y="276" as="targetPoint" />
            <mxPoint as="offset" />
          </mxGeometry>
        </mxCell>
        <mxCell id="QkA5G9svy1yMEFhaN2m3-28" value="Database" style="shape=umlLifeline;perimeter=lifelinePerimeter;whiteSpace=wrap;html=1;container=1;collapsible=0;recursiveResize=0;outlineConnect=0;labelBackgroundColor=none;fillColor=#FFFFFF;" vertex="1" parent="1">
          <mxGeometry x="640" y="70" width="100" height="300" as="geometry" />
        </mxCell>
        <mxCell id="QkA5G9svy1yMEFhaN2m3-29" value="" style="html=1;points=[];perimeter=orthogonalPerimeter;labelBackgroundColor=none;fillColor=#FFFFFF;" vertex="1" parent="QkA5G9svy1yMEFhaN2m3-28">
          <mxGeometry x="45" y="120" width="10" height="30" as="geometry" />
        </mxCell>
        <mxCell id="QkA5G9svy1yMEFhaN2m3-30" value="request username e password" style="html=1;verticalAlign=bottom;endArrow=block;entryX=0;entryY=0;" edge="1" target="QkA5G9svy1yMEFhaN2m3-29" parent="1" source="QkA5G9svy1yMEFhaN2m3-19">
          <mxGeometry relative="1" as="geometry">
            <mxPoint x="610" y="170" as="sourcePoint" />
          </mxGeometry>
        </mxCell>
        <mxCell id="QkA5G9svy1yMEFhaN2m3-31" value="fetch request" style="html=1;verticalAlign=bottom;endArrow=open;dashed=1;endSize=8;exitX=0;exitY=0.95;" edge="1" source="QkA5G9svy1yMEFhaN2m3-29" parent="1" target="QkA5G9svy1yMEFhaN2m3-19">
          <mxGeometry relative="1" as="geometry">
            <mxPoint x="610" y="246" as="targetPoint" />
          </mxGeometry>
        </mxCell>
        <mxCell id="QkA5G9svy1yMEFhaN2m3-34" value="Credenziali non valide" style="html=1;verticalAlign=bottom;endArrow=open;dashed=1;endSize=8;exitX=-0.152;exitY=0.941;exitDx=0;exitDy=0;exitPerimeter=0;" edge="1" parent="1" source="QkA5G9svy1yMEFhaN2m3-19" target="QkA5G9svy1yMEFhaN2m3-14">
          <mxGeometry x="-0.0004" y="-4" relative="1" as="geometry">
            <mxPoint x="330.00380952380954" y="349.9999999999999" as="targetPoint" />
            <mxPoint x="480" y="350" as="sourcePoint" />
            <mxPoint as="offset" />
          </mxGeometry>
        </mxCell>
        <mxCell id="QkA5G9svy1yMEFhaN2m3-37" value="" style="line;strokeWidth=1;direction=west;html=1;dashed=1;dashPattern=20 20;labelBackgroundColor=none;fillColor=#FFFFFF;" vertex="1" parent="1">
          <mxGeometry x="70" y="310" width="660" height="10" as="geometry" />
        </mxCell>
        <mxCell id="QkA5G9svy1yMEFhaN2m3-41" value="else" style="text;align=center;fontStyle=0;verticalAlign=middle;spacingLeft=3;spacingRight=3;strokeColor=none;rotatable=0;points=[[0,0.5],[1,0.5]];portConstraint=eastwest;labelBackgroundColor=none;" vertex="1" parent="1">
          <mxGeometry x="80" y="320" width="40" height="26" as="geometry" />
        </mxCell>
      </root>
    </mxGraphModel>
  </diagram>
</mxfile>
